# xmcd
#
# Track frame offsets: 
#        182
#        18577
#        41245
#        64842
#
# Disc length: 1127 seconds
#
# Revision: 4
# Processed by: cddbd v1.5.2PL0 Copyright (c) Steve Scherf et al.
# Submitted via: ExactAudioCopy v0.99pb5
#
DISCID=33046504
DTITLE=Jimmy Page And Robert Plant - Wonderful One [CD5 Maxi Single)
DYEAR=1995
DGENRE=Rock
TTITLE0=Wonderful One (Radio Edit)
TTITLE1=Wonderful One (LP Version)
TTITLE2=What Is And What Should Never Be (Non-LP Bonus Track)
TTITLE3=When The Levee Breaks (Non-LP Bonus Track)
EXTD=0\n\n\n
EXTT0=
EXTT1=
EXTT2=Non LP bonus track
EXTT3=Non LP bonus track
PLAYORDER=
